<svg width="11" height="11" viewBox="0 0 11 11" fill="none" xmlns="http://www.w3.org/2000/svg">
<path d="M10.7405 3.7895L7.17753 3.45905L5.76223 0.172591C5.66312 -0.0575303 5.33686 -0.0575303 5.23778 0.172591L3.82247 3.45902L0.259539 3.7895C0.0100496 3.81262 -0.0907582 4.12293 0.0974573 4.28829L2.7857 6.64987L1.99898 10.1406C1.94389 10.385 2.20787 10.5767 2.42328 10.4488L5.5 8.62194L8.57672 10.4488C8.79216 10.5768 9.05609 10.385 9.00103 10.1406L8.21428 6.64987L10.9025 4.28829C11.0908 4.12293 10.9899 3.81262 10.7405 3.7895Z" fill="#FFDC64"/>
<path d="M6.27687 1.36769L5.7622 0.172591C5.6631 -0.0575303 5.33683 -0.0575303 5.23775 0.172591L3.82245 3.45902L0.259538 3.7895C0.0100496 3.81262 -0.0907582 4.12293 0.0974573 4.28829L2.7857 6.64987L1.99898 10.1406C1.94389 10.385 2.20787 10.5767 2.42328 10.4488L2.83278 10.2057C3.50409 5.86008 5.39136 2.67009 6.27687 1.36769Z" fill="#FFC850"/>
</svg>
