<svg width="10" height="12" viewBox="0 0 10 12" fill="none" xmlns="http://www.w3.org/2000/svg">
<path d="M2.40519 4.76155L0 9.29301L2.18412 9.09123L3.24123 11.0133L5.64642 6.48185L2.40519 4.76155Z" fill="#E95454"/>
<path d="M2.68054 9.69387C2.74803 9.54891 2.67744 9.37571 2.53626 9.30064L2.39784 9.22695C2.25941 9.1481 2.20673 8.97284 2.28214 8.83097C2.35858 8.68669 2.53833 8.6316 2.6826 8.70804L3.07377 8.91568C3.19463 8.97972 3.34614 8.93324 3.40846 8.81169L3.4181 8.79309C3.48972 8.67843 3.44737 8.52692 3.32823 8.46391L2.15818 7.84307C2.01562 7.76732 1.94572 7.5948 2.01218 7.44949C2.08552 7.29489 2.27078 7.23394 2.41987 7.31314L3.50522 7.88921C3.62608 7.95326 3.77759 7.90677 3.84164 7.78591L3.84783 7.77007L3.84956 7.76663C3.91877 7.63991 3.87022 7.48083 3.74247 7.41299L3.13368 7.09001C2.99113 7.01425 2.92123 6.84174 2.98872 6.69471C3.06137 6.54183 3.24731 6.47916 3.39641 6.55835L4.0689 6.91543C4.19458 6.98223 4.34471 6.92645 4.40979 6.79973C4.41082 6.79801 4.41082 6.79801 4.41151 6.79629C4.41254 6.79457 4.41254 6.79457 4.41323 6.79285C4.48176 6.66785 4.44388 6.51221 4.31785 6.44576L3.59234 6.06079C3.4515 5.98607 3.3816 5.81356 3.44806 5.66825C3.5214 5.51364 3.70666 5.45269 3.85575 5.53189L5.64561 6.48191L3.24043 11.0134L2.57758 9.80854C2.62028 9.77961 2.65747 9.7438 2.68054 9.69387Z" fill="#ED6362"/>
<path d="M6.90423 4.76163L9.30941 9.29309L7.12529 9.0913L6.06818 11.0134L3.66299 6.48193L6.90423 4.76163Z" fill="#ED6362"/>
<path d="M6.62878 9.69366C6.56129 9.5487 6.63188 9.3755 6.77306 9.30043L6.91148 9.22674C7.0499 9.14789 7.10259 8.97262 7.02718 8.83076C6.95073 8.68648 6.77099 8.63139 6.62671 8.70783L6.23555 8.91546C6.11469 8.97951 5.96318 8.93302 5.90085 8.81147L5.89121 8.79288C5.81959 8.67822 5.86194 8.52671 5.98108 8.46369L7.15148 7.84251C7.29404 7.76676 7.36394 7.59425 7.29748 7.44894C7.22414 7.29433 7.03888 7.23338 6.88979 7.31258L5.80444 7.88865C5.68358 7.9527 5.53207 7.90622 5.46802 7.78535L5.46183 7.76951L5.4601 7.76607C5.39089 7.63936 5.43944 7.48027 5.56719 7.41244L6.17598 7.08945C6.31853 7.0137 6.38843 6.84118 6.32094 6.69415C6.24829 6.54127 6.06235 6.4786 5.91325 6.5578L5.24007 6.91556C5.11439 6.98236 4.96426 6.92658 4.89918 6.79986C4.89815 6.79814 4.89815 6.79814 4.89746 6.79642C4.89643 6.7947 4.89643 6.7947 4.89574 6.79298C4.82721 6.66798 4.86509 6.51234 4.99112 6.44589L5.71663 6.06092C5.85747 5.9862 5.92737 5.81369 5.86091 5.66838C5.78757 5.51377 5.60232 5.45282 5.45322 5.53202L3.66336 6.48204L6.06855 11.0135L6.73139 9.80867C6.68904 9.7794 6.65185 9.74359 6.62878 9.69366Z" fill="#E95454"/>
<path d="M4.65473 8.03748C6.87422 8.03748 8.67347 6.23823 8.67347 4.01874C8.67347 1.79925 6.87422 0 4.65473 0C2.43524 0 0.635986 1.79925 0.635986 4.01874C0.635986 6.23823 2.43524 8.03748 4.65473 8.03748Z" fill="#FFCC5B"/>
<path d="M5.19967 3.5577H2.65296C2.45497 3.5577 2.29244 3.39518 2.29244 3.19718L2.2952 3.17239V3.16688C2.29244 2.95787 2.46289 2.78708 2.67225 2.78708H4.43731C4.67111 2.78708 4.87772 2.61388 4.89149 2.37973C4.90251 2.13491 4.70727 1.92831 4.4621 1.92831H2.59236C2.3861 1.92831 2.23184 1.75511 2.2346 1.5485C2.2346 1.54575 2.2346 1.54575 2.2346 1.54299C2.2346 1.54024 2.2346 1.54024 2.2346 1.53749C2.23184 1.33123 2.38576 1.15768 2.59236 1.15768H4.54888C4.77992 1.15768 4.98653 0.984482 5.0003 0.753089C5.01132 0.505511 4.81608 0.301664 4.57091 0.301664H3.13813C1.67712 0.903907 0.647552 2.34048 0.647552 4.01877C0.647552 5.69706 1.67712 7.13328 3.13848 7.73484H4.9576C5.18865 7.73484 5.39525 7.56164 5.40903 7.33025C5.42004 7.08267 5.22481 6.87917 4.97964 6.87917L2.91018 6.87882C2.66605 6.87882 2.46943 6.67463 2.48252 6.4274C2.49457 6.196 2.70255 6.02211 2.93429 6.02211H3.73659C3.96729 6.01557 4.15358 5.82653 4.15358 5.5941C4.15358 5.35755 3.96109 5.16472 3.72419 5.16472H2.508C2.31001 5.16472 2.14748 5.00254 2.15023 4.8042V4.7739C2.13646 4.57866 2.29348 4.41338 2.48872 4.41338H5.17488C5.40868 4.41338 5.61528 4.24018 5.62906 4.00878C5.64008 3.76155 5.44449 3.5577 5.19967 3.5577Z" fill="#FDBC4B"/>
<path d="M4.65467 6.88702C3.07279 6.88702 1.78601 5.5999 1.78601 4.01836C1.78601 2.43683 3.07279 1.15005 4.65467 1.15005C6.23655 1.15005 7.52333 2.43717 7.52333 4.01871C7.52333 5.60024 6.23655 6.88702 4.65467 6.88702Z" fill="#FFDB70"/>
</svg>
