<svg width="10" height="11" viewBox="0 0 10 11" fill="none" xmlns="http://www.w3.org/2000/svg">
<path d="M3.29711 5.97275C2.52239 5.97278 1.76729 5.69828 1.16643 5.18697C0.425164 4.55616 0 3.63628 0 2.66322V1.75453C0 1.6495 0.0409685 1.55073 0.115324 1.47655C0.189437 1.40264 0.287859 1.36195 0.392472 1.36195C0.39282 1.36195 0.393168 1.36195 0.393515 1.36195L2.77262 1.36717C2.92102 1.36748 3.04108 1.48806 3.04076 1.63649C3.04042 1.78468 2.92015 1.90463 2.77207 1.90463C2.77186 1.90463 2.77165 1.90463 2.77144 1.90463L0.537463 1.89973L0.537428 2.66318C0.537428 3.47838 0.893626 4.24907 1.5147 4.77759C2.131 5.30205 2.94123 5.52891 3.7372 5.39977C3.76481 5.39529 3.7926 5.39059 3.82067 5.38569C3.96701 5.36034 4.10612 5.45785 4.13172 5.60403C4.15732 5.75024 4.05956 5.88949 3.91338 5.91508C3.88309 5.92037 3.85301 5.92548 3.8232 5.93032C3.64796 5.95877 3.47198 5.97275 3.29711 5.97275Z" fill="#FFB125"/>
<path d="M6.35159 5.9726C6.17666 5.9726 6.00082 5.95862 5.82547 5.93021C5.79566 5.92537 5.76558 5.92026 5.73529 5.91498C5.58908 5.88938 5.49135 5.75009 5.51695 5.60392C5.54255 5.45771 5.68197 5.36016 5.82801 5.38558C5.85604 5.39052 5.88386 5.39522 5.91147 5.39967C6.70762 5.52869 7.51767 5.30194 8.13398 4.77749C8.75505 4.249 9.11125 3.47831 9.11125 2.66307V1.89962L6.87727 1.90453C6.87706 1.90453 6.87685 1.90453 6.87664 1.90453C6.72852 1.90453 6.60826 1.78461 6.60794 1.63639C6.6076 1.48795 6.72765 1.36738 6.87608 1.36706L9.2553 1.36185C9.25564 1.36185 9.25599 1.36185 9.25634 1.36185C9.36088 1.36185 9.45927 1.4025 9.53342 1.47644C9.60777 1.55066 9.64874 1.64936 9.64874 1.75442V2.66311C9.64874 3.63617 9.22361 4.55605 8.48232 5.18686C7.88145 5.6981 7.12628 5.9726 6.35159 5.9726Z" fill="#FFB125"/>
<path d="M3.05698 9.8671H6.59076C5.12698 8.01084 5.27972 5.33563 5.27972 5.33563H4.82388H4.36805C4.36805 5.33567 4.52079 8.01088 3.05698 9.8671Z" fill="#FED130"/>
<path d="M5.28023 5.33563H4.82439H4.36856C4.36856 5.33563 4.39221 5.75099 4.33138 6.36788C4.21543 7.54377 4.50711 8.72999 5.1953 9.69046C5.23801 9.75007 5.28225 9.80898 5.32805 9.86706H6.5913C5.12749 8.01084 5.28023 5.33563 5.28023 5.33563Z" fill="#F7BC14"/>
<path d="M2.15833 0.591751V2.93619C2.15833 4.32321 2.81755 5.62767 3.93424 6.45039C4.46336 6.84018 5.18459 6.84018 5.7137 6.45039C6.8304 5.62771 7.48962 4.32321 7.48962 2.93619V0.591751H2.15833Z" fill="#FED130"/>
<path d="M6.22047 0.591751V2.93619C6.22047 4.32321 5.56125 5.62767 4.44456 6.45039C4.36356 6.51007 4.27804 6.56049 4.18942 6.60188C4.67973 6.83096 5.26563 6.78054 5.71375 6.45039C6.83045 5.62771 7.48967 4.32321 7.48967 2.93619V0.591751H6.22047Z" fill="#F7BC14"/>
<path d="M7.681 0.957931H1.96777C1.88166 0.957931 1.81186 0.888131 1.81186 0.80202V0.155911C1.81186 0.0697997 1.88166 0 1.96777 0H7.681C7.76711 0 7.83691 0.0697997 7.83691 0.155911V0.80202C7.83687 0.888131 7.76707 0.957931 7.681 0.957931Z" fill="#FFB125"/>
<path d="M7.68073 0H6.56741V0.957896H7.68073C7.76684 0.957896 7.83661 0.888097 7.83661 0.801986V0.155876C7.83661 0.0697997 7.76681 0 7.68073 0Z" fill="#FF901D"/>
<path d="M7.85549 11H1.8166C1.72907 11 1.66831 10.9128 1.69863 10.8307L2.1471 9.61553C2.16532 9.56611 2.21241 9.53331 2.26507 9.53331H7.40703C7.45968 9.53331 7.50677 9.56611 7.525 9.61553L7.97346 10.8307C8.00379 10.9128 7.94303 11 7.85549 11Z" fill="#FFB125"/>
<path d="M7.97347 10.8307L7.525 9.61553C7.50674 9.56611 7.45969 9.53331 7.407 9.53331H6.18051L6.7218 11H7.85547C7.943 11 8.00376 10.9128 7.97347 10.8307Z" fill="#FF901D"/>
</svg>
