<svg id="Layer_1" data-name="Layer 1" xmlns="http://www.w3.org/2000/svg" viewBox="0 0 512 512"><defs><style>.cls-1{fill:#ffa000;}.cls-2{fill:#ffc107;}</style></defs><title>notification</title><path class="cls-1" d="M309.67,426.67a85.34,85.34,0,1,1-85.34-85.34A85.33,85.33,0,0,1,309.67,426.67Z"/><path class="cls-2" d="M373.84,254.32C301.52,244,245.67,181.8,245.67,106.67a148.28,148.28,0,0,1,12.65-59.95,148.68,148.68,0,0,0-34-4C142,42.67,75,109.65,75,192v59.48A143,143,0,0,1,24.05,361a37.33,37.33,0,0,0,24.28,65.69h352a37.34,37.34,0,0,0,24.07-65.88A142.84,142.84,0,0,1,373.84,254.32Z"/></svg>