<svg width="22" height="19" viewBox="0 0 22 19" fill="none" xmlns="http://www.w3.org/2000/svg">
<path d="M18.2537 10.4178C14.7224 9.91351 11.9955 6.87701 11.9955 3.20842C11.9955 2.16663 12.2183 1.17824 12.6131 0.281212C12.0798 0.156281 11.5257 0.0834198 10.9537 0.0834198C6.93302 0.0834198 3.66211 3.35414 3.66211 7.37502V10.2792C3.66211 12.3406 2.75898 14.2865 1.17455 15.626C0.769424 15.9718 0.537109 16.4771 0.537109 17.0104C0.537109 18.0157 1.35479 18.8334 2.35996 18.8334H19.5475C20.5528 18.8334 21.3705 18.0157 21.3705 17.0104C21.3705 16.4771 21.1382 15.9718 20.7226 15.6167C19.1851 14.3157 18.2934 12.427 18.2537 10.4178Z" fill="#FFC107"/>
</svg>
