<svg width="23" height="23" viewBox="0 0 23 23" fill="none" xmlns="http://www.w3.org/2000/svg">
<path d="M22.6714 5.4762H0.328576C0.273439 5.4762 0.219189 5.46078 0.170823 5.43137C0.122456 5.40196 0.0815289 5.35949 0.051811 5.30789C0.0220931 5.25629 0.00454027 5.19721 0.0007694 5.13609C-0.00300147 5.07497 0.00713091 5.01378 0.0302332 4.95815L2.00166 0.212111C2.02796 0.148785 2.07004 0.095155 2.12291 0.0575651C2.17578 0.0199752 2.23723 -9.60092e-07 2.3 0H20.7C20.7628 -9.60092e-07 20.8242 0.0199752 20.8771 0.0575651C20.93 0.095155 20.972 0.148785 20.9983 0.212111L22.9698 4.95815C22.9929 5.01378 23.003 5.07497 22.9992 5.13609C22.9955 5.19721 22.9779 5.25629 22.9482 5.30789C22.9185 5.35949 22.8775 5.40196 22.8292 5.43137C22.7808 5.46078 22.7266 5.4762 22.6714 5.4762V5.4762ZM0.842133 4.74604H22.1579L20.4897 0.73016H2.51029L0.842133 4.74604Z" fill="black"/>
<path d="M1.92456 9.85713C1.41436 9.85645 0.925221 9.63095 0.56445 9.2301C0.203679 8.82924 0.000730754 8.28576 0.00012207 7.71886V5.1111C0.00012207 5.01427 0.0347393 4.92141 0.0963583 4.85295C0.157977 4.78448 0.241551 4.74602 0.328693 4.74602H3.52043C3.60758 4.74602 3.69115 4.78448 3.75277 4.85295C3.81439 4.92141 3.84901 5.01427 3.84901 5.1111V7.71886C3.8484 8.28576 3.64545 8.82924 3.28468 9.2301C2.92391 9.63095 2.43477 9.85645 1.92456 9.85713V9.85713ZM0.657265 5.47618V7.71886C0.657265 8.09231 0.790783 8.45047 1.02845 8.71454C1.26611 8.97862 1.58846 9.12697 1.92456 9.12697C2.26067 9.12697 2.58301 8.97862 2.82068 8.71454C3.05834 8.45047 3.19186 8.09231 3.19186 7.71886V5.47618H0.657265Z" fill="black"/>
<path d="M5.11621 9.85713C4.60601 9.85645 4.11687 9.63095 3.7561 9.2301C3.39533 8.82924 3.19238 8.28576 3.19177 7.71886V5.1111C3.19177 5.01427 3.22639 4.92141 3.28801 4.85295C3.34963 4.78448 3.4332 4.74602 3.52034 4.74602H6.71209C6.79923 4.74602 6.8828 4.78448 6.94442 4.85295C7.00604 4.92141 7.04066 5.01427 7.04066 5.1111V7.71886C7.04005 8.28576 6.8371 8.82924 6.47633 9.2301C6.11556 9.63095 5.62642 9.85645 5.11621 9.85713ZM3.84892 5.47618V7.71886C3.84892 8.09231 3.98243 8.45047 4.2201 8.71454C4.45776 8.97862 4.78011 9.12697 5.11621 9.12697C5.45232 9.12697 5.77467 8.97862 6.01233 8.71454C6.25 8.45047 6.38351 8.09231 6.38351 7.71886V5.47618H3.84892Z" fill="black"/>
<path d="M8.30836 9.85713C7.79815 9.85645 7.30901 9.63095 6.94824 9.2301C6.58747 8.82924 6.38452 8.28576 6.38391 7.71886V5.1111C6.38391 5.01427 6.41853 4.92141 6.48015 4.85295C6.54177 4.78448 6.62534 4.74602 6.71248 4.74602H9.90423C9.99137 4.74602 10.0749 4.78448 10.1366 4.85295C10.1982 4.92141 10.2328 5.01427 10.2328 5.1111V7.71886C10.2322 8.28576 10.0292 8.82924 9.66847 9.2301C9.3077 9.63095 8.81856 9.85645 8.30836 9.85713ZM7.04106 5.47618V7.71886C7.04106 8.09231 7.17457 8.45047 7.41224 8.71454C7.6499 8.97862 7.97225 9.12697 8.30836 9.12697C8.64447 9.12697 8.96681 8.97862 9.20448 8.71454C9.44214 8.45047 9.57566 8.09231 9.57566 7.71886V5.47618H7.04106Z" fill="black"/>
<path d="M11.5 9.85713C10.9898 9.85645 10.5007 9.63095 10.1399 9.2301C9.77912 8.82924 9.57617 8.28576 9.57556 7.71886V5.1111C9.57556 5.01427 9.61018 4.92141 9.6718 4.85295C9.73342 4.78448 9.81699 4.74602 9.90413 4.74602H13.0959C13.183 4.74602 13.2666 4.78448 13.3282 4.85295C13.3898 4.92141 13.4244 5.01427 13.4244 5.1111V7.71886C13.4238 8.28576 13.2209 8.82924 12.8601 9.2301C12.4993 9.63095 12.0102 9.85645 11.5 9.85713V9.85713ZM10.2327 5.47618V7.71886C10.2327 8.09231 10.3662 8.45047 10.6039 8.71454C10.8415 8.97862 11.1639 9.12697 11.5 9.12697C11.8361 9.12697 12.1584 8.97862 12.3961 8.71454C12.6338 8.45047 12.7673 8.09231 12.7673 7.71886V5.47618H10.2327Z" fill="black"/>
<path d="M14.6917 9.85713C14.1815 9.85645 13.6923 9.63095 13.3315 9.2301C12.9708 8.82924 12.7678 8.28576 12.7672 7.71886V5.1111C12.7672 5.01427 12.8018 4.92141 12.8634 4.85295C12.9251 4.78448 13.0086 4.74602 13.0958 4.74602H16.2875C16.3747 4.74602 16.4583 4.78448 16.5199 4.85295C16.5815 4.92141 16.6161 5.01427 16.6161 5.1111V7.71886C16.6155 8.28576 16.4125 8.82924 16.0518 9.2301C15.691 9.63095 15.2019 9.85645 14.6917 9.85713V9.85713ZM13.4244 5.47618V7.71886C13.4244 8.09231 13.5579 8.45047 13.7955 8.71454C14.0332 8.97862 14.3555 9.12697 14.6917 9.12697C15.0278 9.12697 15.3501 8.97862 15.5878 8.71454C15.8254 8.45047 15.959 8.09231 15.959 7.71886V5.47618H13.4244Z" fill="black"/>
<path d="M17.8838 9.85713C17.3736 9.85645 16.8845 9.63095 16.5237 9.2301C16.1629 8.82924 15.96 8.28576 15.9594 7.71886V5.1111C15.9594 5.01427 15.994 4.92141 16.0556 4.85295C16.1172 4.78448 16.2008 4.74602 16.2879 4.74602H19.4797C19.5668 4.74602 19.6504 4.78448 19.712 4.85295C19.7736 4.92141 19.8082 5.01427 19.8082 5.1111V7.71886C19.8076 8.28576 19.6047 8.82924 19.2439 9.2301C18.8831 9.63095 18.394 9.85645 17.8838 9.85713ZM16.6162 5.47618V7.71886C16.6162 8.09231 16.7497 8.45047 16.9873 8.71454C17.225 8.97862 17.5474 9.12697 17.8835 9.12697C18.2196 9.12697 18.5419 8.97862 18.7796 8.71454C19.0172 8.45047 19.1508 8.09231 19.1508 7.71886V5.47618H16.6162Z" fill="black"/>
<path d="M21.0754 9.85713C20.5652 9.85645 20.0761 9.63095 19.7153 9.2301C19.3546 8.82924 19.1516 8.28576 19.151 7.71886V5.1111C19.151 5.01427 19.1856 4.92141 19.2472 4.85295C19.3089 4.78448 19.3924 4.74602 19.4796 4.74602H22.6713C22.7585 4.74602 22.842 4.78448 22.9037 4.85295C22.9653 4.92141 22.9999 5.01427 22.9999 5.1111V7.71886C22.9993 8.28576 22.7963 8.82924 22.4356 9.2301C22.0748 9.63095 21.5857 9.85645 21.0754 9.85713V9.85713ZM19.8081 5.47618V7.71886C19.8081 8.09231 19.9417 8.45047 20.1793 8.71454C20.417 8.97862 20.7393 9.12697 21.0754 9.12697C21.4116 9.12697 21.7339 8.97862 21.9716 8.71454C22.2092 8.45047 22.3427 8.09231 22.3427 7.71886V5.47618H19.8081Z" fill="black"/>
<path d="M21.6856 23H1.28463C1.19748 23 1.11391 22.9615 1.05229 22.8931C0.990672 22.8246 0.956055 22.7317 0.956055 22.6349V9.12698H1.6132V22.2698H21.357V9.12698H22.0142V22.6349C22.0142 22.7317 21.9796 22.8246 21.918 22.8931C21.8563 22.9615 21.7728 23 21.6856 23Z" fill="black"/>
<path d="M19.0572 23H13.4715C13.3844 23 13.3008 22.9615 13.2392 22.8931C13.1776 22.8246 13.1429 22.7317 13.1429 22.6349V12.4127C13.1429 12.3159 13.1776 12.223 13.2392 12.1546C13.3008 12.0861 13.3844 12.0476 13.4715 12.0476H19.0572C19.1444 12.0476 19.2279 12.0861 19.2895 12.1546C19.3512 12.223 19.3858 12.3159 19.3858 12.4127V22.6349C19.3858 22.7317 19.3512 22.8246 19.2895 22.8931C19.2279 22.9615 19.1444 23 19.0572 23ZM13.8001 22.2698H18.7286V12.7778H13.8001V22.2698Z" fill="black"/>
<path d="M11.4999 19.8968H3.2856C3.19846 19.8968 3.11489 19.8584 3.05327 19.7899C2.99165 19.7214 2.95703 19.6286 2.95703 19.5317V12.2302C2.95703 12.1333 2.99165 12.0405 3.05327 11.972C3.11489 11.9035 3.19846 11.8651 3.2856 11.8651H11.4999C11.587 11.8651 11.6706 11.9035 11.7322 11.972C11.7938 12.0405 11.8285 12.1333 11.8285 12.2302V19.5317C11.8285 19.6286 11.7938 19.7214 11.7322 19.7899C11.6706 19.8584 11.587 19.8968 11.4999 19.8968ZM3.61417 19.1667H11.1713V12.5952H3.61417V19.1667Z" fill="black"/>
</svg>
