<svg width="23" height="23" viewBox="0 0 23 23" fill="none" xmlns="http://www.w3.org/2000/svg">
<path d="M19.6962 0H3.3039C2.5958 0 1.99792 0.555432 1.99792 1.23802V21.0076C1.99792 21.0139 2.00877 21.0206 2.00877 21.0271C2.00877 22.1149 2.94319 23 4.07861 23H18.504C19.2121 23 19.7839 22.4446 19.7839 21.7624V19.8305C20.4661 19.785 21.0022 19.2486 21.0022 18.5956V1.23764C21.0022 0.555432 20.4043 0 19.6962 0V0ZM19.0043 21.7624C19.0043 22.0148 18.7821 22.2203 18.504 22.2203H4.07861C3.37337 22.2203 2.79948 21.6849 2.79948 21.0271V21.0116C2.80804 20.3605 3.3787 19.8326 4.07861 19.8326H19.0043V21.7624ZM20.2225 18.5958C20.2225 18.8485 19.9743 19.0532 19.6962 19.0532H4.07861C3.5957 19.0532 3.16742 19.2142 2.77759 19.4818V1.23802C2.77759 0.985426 3.0258 0.779661 3.3039 0.779661H19.6962C19.9743 0.779661 20.2225 0.985236 20.2225 1.23764V18.5958Z" fill="black"/>
<path d="M17.5205 16.4216H5.47955C5.26427 16.4216 5.08972 16.5962 5.08972 16.8114C5.08972 17.0267 5.26427 17.2013 5.47955 17.2013H17.5205C17.7358 17.2013 17.9103 17.0267 17.9103 16.8114C17.9103 16.5962 17.7358 16.4216 17.5205 16.4216Z" fill="black"/>
<path d="M17.5205 14.4725H5.47955C5.26427 14.4725 5.08972 14.647 5.08972 14.8623C5.08972 15.0776 5.26427 15.2521 5.47955 15.2521H17.5205C17.7358 15.2521 17.9103 15.0776 17.9103 14.8623C17.9103 14.647 17.7358 14.4725 17.5205 14.4725Z" fill="black"/>
</svg>
