<svg width="12" height="12" viewBox="0 0 12 12" fill="none" xmlns="http://www.w3.org/2000/svg">
<g clip-path="url(#clip0)">
<path d="M0.307695 9.73561L9.71212 0.331175C10.1223 -0.0789788 10.7872 -0.0789788 11.1967 0.331175L11.6924 0.82605C12.1025 1.23633 12.1025 1.90129 11.6924 2.31081L2.28796 11.7152C1.87768 12.1254 1.21272 12.1254 0.803211 11.7152L0.308336 11.2204C-0.102586 10.8109 -0.102586 10.1458 0.307695 9.73561Z" fill="white"/>
<path d="M2.28798 0.331933L11.6924 9.73637C12.1025 10.1465 12.1025 10.8116 11.6924 11.2211L11.1975 11.716C10.7872 12.1262 10.1223 12.1262 9.71276 11.716L0.307711 2.3122C-0.10257 1.90205 -0.10257 1.23709 0.307711 0.827578L0.802586 0.332702C1.21274 -0.0782204 1.8777 -0.0782204 2.28798 0.331933Z" fill="white"/>
</g>
<defs>
<clipPath id="clip0">
<rect width="12" height="12" fill="white" transform="matrix(-1 0 0 1 12 0)"/>
</clipPath>
</defs>
</svg>
