<svg width="24" height="24" viewBox="0 0 24 24" fill="none" xmlns="http://www.w3.org/2000/svg">
<g clip-path="url(#clip0)">
<path d="M6.59344 17.9481L15.0741 17.839C15.3162 17.8359 15.5427 17.7381 15.7125 17.5638C15.8825 17.3894 15.9743 17.1604 15.9713 16.9184L15.9612 16.1484C15.9582 15.9066 15.8605 15.6797 15.6862 15.5099C15.5119 15.34 15.2772 15.2428 15.0354 15.246L10.0824 15.3044L17.8403 7.34405C18.1901 6.98514 18.1855 6.42773 17.8265 6.07785L17.2751 5.54046C16.9161 5.19058 16.3304 5.17273 15.9806 5.53163L8.19501 13.5204L8.13939 8.52557C8.13618 8.28358 8.0429 8.06109 7.86857 7.89119C7.69443 7.72148 7.46729 7.6317 7.2254 7.63481L6.45659 7.64586C6.2145 7.64898 5.98854 7.74717 5.81855 7.92159C5.64874 8.09582 5.55718 8.32519 5.5603 8.56727L5.66949 17.0478C5.67271 17.2906 5.77102 17.5182 5.94601 17.6878C6.12074 17.8588 6.35078 17.9514 6.59344 17.9481Z" fill="#FE20BE"/>
</g>
<defs>
<clipPath id="clip0">
<rect width="16.6064" height="16.6064" fill="white" transform="translate(23.4829 11.5903) rotate(134.262)"/>
</clipPath>
</defs>
</svg>
