<svg width="17" height="18" viewBox="0 0 17 18" fill="none" xmlns="http://www.w3.org/2000/svg">
<g clip-path="url(#clip0)">
<path d="M7.69089 0.674492L1.68152 6.65955C1.50998 6.8304 1.41555 7.05837 1.41506 7.30166C1.41457 7.54522 1.50821 7.77344 1.67893 7.94498L2.22246 8.49057C2.39304 8.66198 2.62115 8.75667 2.86457 8.75716C3.10786 8.75765 3.34405 8.66389 3.51532 8.49318L7.02871 5.0016L7.00631 16.117C7.0053 16.6181 7.39684 17.0149 7.89814 17.0159L8.6681 17.0175C9.16939 17.0185 9.60209 16.6234 9.6031 16.1222L9.62558 4.96714L13.1444 8.51245C13.3152 8.68386 13.5371 8.77854 13.7805 8.77903C14.0237 8.77952 14.2492 8.68574 14.4206 8.51502L14.9646 7.97162C15.1361 7.80078 15.2299 7.57293 15.2304 7.32937C15.2309 7.08609 15.1368 6.85773 14.966 6.68619L8.98091 0.676957C8.80952 0.505014 8.58047 0.410181 8.33677 0.410365C8.09227 0.40933 7.8627 0.503106 7.69089 0.674492Z" fill="#FF3535"/>
</g>
<defs>
<clipPath id="clip0">
<rect width="16.6064" height="16.6064" fill="white" transform="translate(0 17) rotate(-89.8845)"/>
</clipPath>
</defs>
</svg>
