<svg width="24" height="24" viewBox="0 0 24 24" fill="none" xmlns="http://www.w3.org/2000/svg">
<g clip-path="url(#clip0)">
<path d="M16.5232 5.24212L8.06067 5.80688C7.81911 5.82301 7.59815 5.93286 7.43796 6.11597C7.27759 6.29928 7.19827 6.53286 7.21429 6.77434L7.26568 7.54275C7.28169 7.78404 7.39146 8.00529 7.57467 8.16557C7.75778 8.32576 7.99745 8.41023 8.23872 8.39403L13.1814 8.06957L5.86252 16.4354C5.53254 16.8125 5.56709 17.3689 5.94438 17.699L6.52388 18.206C6.90117 18.536 7.48696 18.5224 7.81694 18.1452L15.1619 9.74953L15.4859 14.7341C15.5022 14.9756 15.6073 15.1928 15.7905 15.353C15.9735 15.5131 16.2051 15.5906 16.4465 15.5745L17.2136 15.5221C17.4552 15.506 17.6755 15.3958 17.8359 15.2125C17.9961 15.0294 18.0752 14.7954 18.0591 14.5539L17.4942 6.09142C17.4779 5.8492 17.3675 5.62722 17.1837 5.46727C17 5.30588 16.7653 5.22577 16.5232 5.24212Z" fill="#9E079E"/>
</g>
<defs>
<clipPath id="clip0">
<rect width="16.6064" height="16.6064" fill="white" transform="translate(0 12.4985) rotate(-48.8188)"/>
</clipPath>
</defs>
</svg>
